<?xml version="1.0" encoding="iso-8859-1"?>
<!-- Generator: Adobe Illustrator 16.0.0, SVG Export Plug-In . SVG Version: 6.00 Build 0)  -->
<!DOCTYPE svg PUBLIC "-//W3C//DTD SVG 1.1//EN" "http://www.w3.org/Graphics/SVG/1.1/DTD/svg11.dtd">
<svg version="1.1" id="Layer_1" xmlns="http://www.w3.org/2000/svg" xmlns:xlink="http://www.w3.org/1999/xlink" x="0px" y="0px"
	 width="450px" height="200px" viewBox="0 0 450 200" enable-background="new 0 0 450 200" xml:space="preserve">
<path fill-rule="evenodd" clip-rule="evenodd" d="M626,210c-8.66-0.07-17.325-0.321-25.979-0.119
	c-3.426,0.08-5.357-1.149-7.274-3.869c-14.967-21.241-30.042-42.405-45.255-63.471c-1.376-1.904-3.953-2.941-5.973-4.382
	c-0.461,0.383-0.922,0.765-1.383,1.147c0,23.246,0,46.492,0,70.108c-8.914,0-17.284,0-25.979,0c0-57.271,0-114.352,0-171.696
	c1.235-0.163,2.353-0.471,3.457-0.432c16.795,0.59,33.688,0.287,50.357,2.078c22.375,2.403,38.352,16.047,42.669,35.028
	c7.143,31.403-10.243,55.012-34.332,60.955c-0.792,0.195-1.54,0.569-2.603,0.972c0.659,1.143,1.126,2.172,1.783,3.06
	c16.155,21.823,32.328,43.634,48.513,65.435c0.585,0.789,1.328,1.46,1.998,2.186C626,208,626,209,626,210z M540.213,116.602
	c11.958,0.247,23.604,0.592,34.229-5.387c15.979-8.989,16.717-35.01,1.232-44.123c-11.023-6.488-23.176-5.715-35.462-5.327
	C540.213,80.245,540.213,98.146,540.213,116.602z"/>
<path fill-rule="evenodd" clip-rule="evenodd" d="M59.776,37.466c8.768,0,17.045,0,25.631,0c0.149,1.204,0.404,2.305,0.405,3.405
	c0.019,36.48,0.223,72.962-0.053,109.44c-0.231,30.646-21.327,55.434-51.481,61.297c-30.969,6.021-62.1-8.909-73.228-36.188
	c-3.373-8.269-5.252-17.696-5.403-26.634c-0.602-35.805-0.257-71.624-0.245-107.438c0-1.134,0.197-2.267,0.333-3.732
	c8.588,0,16.979,0,26.056,0c0,1.982,0,3.915,0,5.848c0.015,33.648-0.048,67.297,0.125,100.944c0.027,5.281,0.663,10.659,1.81,15.816
	c4.223,18.985,20.407,30.375,39.897,28.444c21.969-2.176,34.99-15.556,35.385-38.255c0.618-35.47,0.346-70.955,0.47-106.434
	C59.485,41.868,59.668,39.757,59.776,37.466z"/>
<path fill-rule="evenodd" clip-rule="evenodd" d="M381.494,209.479c0-57.321,0-114.392,0-171.841c32,0,63.881,0,96.676,0
	c0,7.17,0.152,14.412-0.207,21.629c-0.041,0.828-2.926,2.156-4.501,2.168c-19.32,0.15-38.643,0.099-57.965,0.1
	c-2.32,0-4.641,0-7.387,0c0,13.866,0,27.415,0,41.517c17.181,0,34.416,0,52.443,0c0,7.786,0.149,15.054-0.21,22.296
	c-0.039,0.803-2.967,2.071-4.567,2.091c-13.989,0.166-27.982,0.096-41.974,0.097c-1.799,0-3.598,0-5.757,0
	c0,19.367,0,38.268,0,57.747c1.892,0.116,3.807,0.332,5.722,0.335c19.654,0.026,39.311,0.142,58.964-0.077
	c4.426-0.049,5.86,1.284,5.605,5.675c-0.346,5.955-0.086,11.945-0.086,18.265C445.885,209.479,413.976,209.479,381.494,209.479z"/>
<path fill-rule="evenodd" clip-rule="evenodd" d="M227.691,62.774c-7.071,4.104-13.945,8.092-20.956,12.16
	c-1.301-1.866-2.407-3.511-3.572-5.114c-8.651-11.913-24.92-15.364-37.768-8.023c-14.243,8.138-15.06,24.754-1.141,33.386
	c6.713,4.163,14.432,6.701,21.684,9.998c6.656,3.025,13.562,5.616,19.899,9.209c21.061,11.942,29.066,28.642,25.991,53.053
	c-2.488,19.763-18.578,37.655-38.846,43.2c-24.654,6.743-49.508-1.11-62.571-19.773c-5.812-8.303-10.27-20.836-10.008-28.696
	c8.406-1.798,16.929-3.621,25.575-5.471c1.075,4.702,1.763,8.797,2.958,12.737c3.68,12.14,14.029,19.269,27.765,19.369
	c12.929,0.095,24.039-7.69,27.868-19.528c4.036-12.481,0.615-24.562-10.377-31.614c-7.484-4.802-16.017-7.972-24.085-11.862
	c-6.88-3.317-14.09-6.091-20.582-10.043c-14.367-8.745-22.737-21.232-21.762-38.764c1.008-18.088,11.081-30.15,26.693-37.403
	C178.299,28.518,210.211,31.857,227.691,62.774z"/>
<path fill-rule="evenodd" clip-rule="evenodd" d="M-76.211,37.627c0,8.063,0,15.664,0,23.887c-20.351,0-40.413,0-60.757,0
	c0,14.051,0,27.477,0,41.481c14.038,0,28.096,0,42.638,0c0,8.26,0,15.962,0,24.288c-14.014,0-28.08,0-42.713,0
	c0,27.659,0,54.713,0,82.135c-8.972,0-17.381,0-26.217,0c0-57.062,0-114.242,0-171.791
	C-134.367,37.627-105.503,37.627-76.211,37.627z"/>
<path fill-rule="evenodd" clip-rule="evenodd" d="M290.257,61.516c-13.628,0-26.702,0-40.054,0c0-8.241,0-15.848,0-23.856
	c35.456,0,70.824,0,106.511,0c0,7.729,0,15.323,0,23.586c-13.063,0-26.12,0-39.711,0c0,49.728,0,98.798,0,148.226
	c-9.083,0-17.627,0-26.746,0C290.257,160.277,290.257,111.214,290.257,61.516z"/>
</svg>
