<?xml version="1.0" encoding="iso-8859-1"?>
<!-- Generator: Adobe Illustrator 16.0.0, SVG Export Plug-In . SVG Version: 6.00 Build 0)  -->
<!DOCTYPE svg PUBLIC "-//W3C//DTD SVG 1.1//EN" "http://www.w3.org/Graphics/SVG/1.1/DTD/svg11.dtd">
<svg version="1.1" id="Layer_1" xmlns="http://www.w3.org/2000/svg" xmlns:xlink="http://www.w3.org/1999/xlink" x="0px" y="0px"
	 width="450px" height="200px" viewBox="0 0 450 200" enable-background="new 0 0 450 200" xml:space="preserve">
<path class="bottom" fill-rule="evenodd" clip-rule="evenodd" d="M26,103.506c14.253,10.44,28.506,20.881,42.928,31.444
	c0.769-0.512,1.56-1.003,2.314-1.545c30.619-21.987,61.252-43.957,91.813-66.026c1.94-1.4,3.073-1.249,4.894,0.095
	c30.264,22.33,60.6,44.565,90.859,66.902c1.866,1.378,3.021,1.408,4.892,0.017c7.822-5.818,15.791-11.442,23.711-17.13
	c0.681-0.489,1.402-0.924,2.477-1.626c0,2.885,0,5.372,0,7.858c0,8.972,0.027,17.942-0.043,26.913
	c-0.007,0.91-0.33,2.193-0.975,2.665c-9.119,6.687-18.319,13.263-27.61,19.945c-3.016-2.203-5.961-4.347-8.896-6.503
	c-28.21-20.716-56.432-41.416-84.591-62.2c-1.807-1.334-2.925-1.235-4.676,0.027c-30.506,21.996-61.062,43.923-91.608,65.864
	c-0.776,0.558-1.567,1.096-2.5,1.746c-1.812-1.315-3.639-2.627-5.45-3.958c-11.856-8.713-23.708-17.433-35.568-26.141
	c-0.623-0.458-1.312-0.826-1.97-1.235C26,128.248,26,115.877,26,103.506z"/>
<path class="top" fill-rule="evenodd" clip-rule="evenodd" d="M219.838,63.659c-8.476-6.228-16.748-12.305-25.331-18.609
	c0.896-0.708,1.588-1.3,2.323-1.828c14.629-10.52,29.29-20.997,43.864-31.592c1.756-1.277,2.82-1.138,4.49,0.098
	c55.21,40.859,110.471,81.648,165.662,122.533c2.146,1.59,3.441,1.569,5.537,0.004c7.529-5.627,15.229-11.025,22.868-16.505
	c0.765-0.549,1.554-1.063,2.712-1.854c0.086,1.15,0.197,1.953,0.198,2.757c0.012,10.538,0.058,21.076-0.062,31.612
	c-0.014,1.17-0.679,2.762-1.58,3.427c-8.544,6.305-17.204,12.452-25.836,18.64c-0.344,0.247-0.729,0.437-1.203,0.718
	c-5.696-4.204-11.366-8.384-17.031-12.569c-50.2-37.09-100.413-74.164-150.562-111.327c-2.283-1.692-3.744-1.719-5.99-0.017
	C233.383,54.08,226.666,58.749,219.838,63.659z"/>
</svg>
